<svg xmlns="http://www.w3.org/2000/svg" viewBox="0 0 146 299"><defs><style>.cls-1{fill:#b3b3b3;}.cls-2{fill:#adadad;}.cls-3{fill:#0b0808;}</style></defs><title>iPhone X Container</title><g id="Layer_2" data-name="Layer 2"><g id="Layer_1-2" data-name="Layer 1"><g id="Layer_1-2-2" data-name="Layer 1-2"><path class="cls-1" d="M1.14,20.19C2,13.05,5.13,7.35,11.27,3.44,15.32.86,19.91.08,24.53.06q48.06-.12,96.13,0c8.55,0,16,2.81,20.58,10.73a25.33,25.33,0,0,1,3.27,12.81c.14,14.54.06,29.09.1,43.63,0,1-.57,2.46,1.39,2.34v33.6c-1,0-1.41.59-1.41,1.54v2.15q0,84.15-.06,168.29c0,8.17-2.57,15.35-9.64,20.28a21.07,21.07,0,0,1-10,3.48c-.28-.51-2.27.32-1.06-1.36a5.85,5.85,0,0,1,2.25-.77c9.49-2,15.25-8.41,16.23-18a108.34,108.34,0,0,0,.58-11.24V29.18a57.94,57.94,0,0,0-1-11,19,19,0,0,0-19.33-16q-49.64-.06-99.28,0c-10.5.06-18.12,6.53-20,16.8a8.2,8.2,0,0,1-.79,2.75c-.46.54-.88.68-1.1-.18C1.26,21.1,1.4,20.61,1.14,20.19Z"/><path class="cls-2" d="M123.45,298.06l1.41.85c-2.72,0-5.43.09-8.15.09q-47.47,0-94.95-.05A20.88,20.88,0,0,1,1.53,281.29a78.3,78.3,0,0,1-.88-11.66c0-51.72.1-103.42-.1-155.15,0-7.5-.36-15-.42-22.5C.13,91,0,90,.65,89.23c.48-1.93.83-3.86-.09-5.76C0,83.15.07,82.54.07,82V63.37c0-.54-.08-1.13.49-1.5a19.93,19.93,0,0,0,0-10c-1-3.65-.36-7.36-.36-11,.94-.36.91-1.16.89-2C1,34.24,1.34,29.66.86,25.08a1.76,1.76,0,0,1,.19-1.15l.09-3.74L2,22.08a2.91,2.91,0,0,1,.83,2.39c.06,1.13,0,2.24,0,3.37v246.5c0,4.47.56,8.82,2.75,12.75,3.66,6.57,9.55,9.62,16.91,10.07,1.12.07,2.24,0,3.36,0h93.28C120.6,297.22,122.2,296.82,123.45,298.06Z"/><path class="cls-1" d="M1.05,23.93c.92,5.15.33,10.35.52,15.53,0,1-.06,1.75-1.37,1.34.78-1.58.33-3.27.43-4.9C.88,31.92.16,27.89,1.05,23.93Z"/><path class="cls-1" d="M.56,51.85c.35-.07.92-.66.9-.41-.24,3.44,1,7-.7,10.32,0,.06-.13.09-.2.13Z"/><path class="cls-1" d="M.56,83.5c1.85,1.82.73,3.92.53,5.91l-.44-.14Z"/><path class="cls-3" d="M142.49,17A20,20,0,0,0,123.07,1.46c-10.87-.14-21.74-.09-32.61-.08q-34,0-68.11.1A19.51,19.51,0,0,0,6.73,9C3.62,12.84,2.59,17.36,2,22.08V59.26q0,108.33.07,216.64c0,13.54,8.77,22.08,22.3,22.09H121c.8,0,1.59,0,2.39.06.94-.17,1.88-.37,2.83-.52a19.84,19.84,0,0,0,16.37-16,64.36,64.36,0,0,0,.84-11.93V28.83A51.81,51.81,0,0,0,142.49,17Zm-7.2,262.78c-1.34,6.77-6.4,10.5-14.19,10.53H25.4a23.72,23.72,0,0,1-6.16-.69c-5.53-1.41-9.16-6-9.48-12-.12-2.14-.19-4.31-.19-6.47V28.35A39.11,39.11,0,0,1,10,20C11.56,13,16,9.33,23.15,9.14,27.07,9,31,9.2,34.91,9.08c1.77,0,2.38.76,2.58,2.36.76,6.1,2.77,7.89,8.82,7.89h53c6,0,8.13-1.89,8.83-7.89.13-1.17.34-2.35,1.84-2.31,5.1.16,10.23-.5,15.3.45a12.35,12.35,0,0,1,10.15,10.9,71,71,0,0,1,.46,8.37v242.3a44.23,44.23,0,0,1-.6,8.6Z"/></g></g></g></svg>